<?xml version="1.0" encoding="UTF-8"?>
<svg aria-label="Token ATM" version="1.1" viewBox="0 0 1024 500" xmlns="http://www.w3.org/2000/svg">
  <g transform="translate(-10.216 -269.68)">
    <g transform="translate(.32149 109.54)">
      <path d="m817.61 438.78h90.567v-16.5l-16.133-1.4667-5.1333-5.5v-121c13.933-4.0333 25.667-6.2333 34.833-6.2333 23.1 0 33 12.467 33 39.6v87.633l-5.1333 5.5-15.767 1.4667v16.5h89.833v-16.5l-19.433-1.4667-4.7667-5.5v-98.267c0-40.7-16.133-60.867-49.867-60.867-16.133 0-36.667 8.0667-62.7 22.367v-21.633h-17.6l-52.8 17.233v14.667h24.933v126.5l-5.1333 5.5-18.7 1.4667z" style="fill:#1a1a1a;stroke-width:5.5559"/>
      <path d="m794.51 393.32c-21.267 13.567-41.067 20.167-60.5 20.167-36.3 0-59.033-24.933-59.033-67.1v-1.1h119.9v-6.9667c0-52.8-28.233-82.867-76.267-82.867-52.8 0-90.567 38.5-90.567 94.6 0 55.367 35.933 92.033 90.567 92.033 25.667 0 51.333-7.3333 75.9-21.633zm-47.667-67.467h-70.033c1.1-31.9 16.133-50.233 38.133-50.233 20.167 0 31.9 15.767 31.9 46.2v4.0333z" style="fill:#1a1a1a;stroke-width:5.5559"/>
      <path d="m420.51 438.78h92.4v-16.133l-18.333-1.4667-4.7667-5.1333v-60.133h17.967l42.533 68.567v14.3h70.4v-16.133l-21.633-1.8333-58.3-94.6 41.8-46.567 23.833-2.9333v-16.133h-74.8v16.133l16.133 1.8333 2.5667 4.0333-52.433 61.233h-8.0667v-176h-15.4l-56.467 17.233v14.3h26.767v215.97l-5.1333 5.5-19.067 1.8333z" style="fill:#1a1a1a;stroke-width:5.5559"/>
      <path d="m308.31 255.82c-57.567 0-94.967 37.401-94.967 93.867 0 55.367 37.033 92.033 92.033 92.033 57.933 0 94.967-37.034 94.967-91.301 0-58.3-35.933-94.6-92.033-94.6zm-0.0762 4.8652c53.164 0 87.217 34.4 87.217 89.648 0 51.426-35.095 86.521-89.996 86.521-52.121 0-87.217-34.748-87.217-87.217 0-53.511 35.442-88.953 89.996-88.953zm-0.0605 3.8066c-52.197 0-86.107 33.912-86.107 85.111 0 50.202 33.58 83.445 83.449 83.445 52.529 0 86.107-33.577 86.107-82.781 0-52.861-32.583-85.775-83.449-85.775zm-1.3301 10.762c26.033 0 42.9 26.033 42.9 74.066 0 47.667-16.132 72.967-43.266 72.967-25.667 0-42.168-26.033-42.168-74.066 0-47.3 16.5-72.967 42.533-72.967z" style="fill:#c4af69;stroke-width:5.5559"/>
      <path d="m20.111 192.75v64.9h25.3l5.8667-39.233 5.8667-4.7667h44v199.47l-6.2333 5.8667-23.833 1.8333v17.967h109.63v-17.967l-23.833-1.8333-6.2333-5.8667v-199.47h44l5.5 4.7667 6.2333 39.233h25.3v-64.9z" style="fill:#1a1a1a;stroke-width:5.5559"/>
      <path d="m614.13 652.46h32.633l-56.1-206.8h-39.233l-56.467 206.8h31.9l12.467-50.967h62.333zm-68.933-76.267 25.3-104.5 25.3 104.5zm238.43-130.53h-132v26.767h49.133v180.03h32.267v-180.03h47.3zm190.4 0h-41.433l-32.267 151.07-33.367-151.07h-41.433l-14.667 206.8h30.433l4.7667-89.833c1.8333-33.733 2.2-61.6 2.2-89.1l35.933 155.83h30.8l34.833-155.83c0.36667 26.033 1.8333 54.633 3.6667 87.633l4.7667 91.3h30.433z" style="direction:rtl;fill:#333;font-variant-caps:all-small-caps;stroke-width:5.5559"/>
    </g>
  </g>
</svg>
