<?xml version="1.0" encoding="UTF-8"?>
<svg version="1.1" viewBox="0 0 1024 1024" xmlns="http://www.w3.org/2000/svg">
  <path id="background" d="m510.4 28.279c-60.674 0.004313-121.34 9.6785-172.36 28.405-126.13 46.293-221.63 143.56-264.05 268.95-38.79 114.65-36.859 263.09 4.9116 377.7 30.022 82.374 79.16 150.11 145.61 200.72 67.625 51.509 158.5 83.841 255.11 90.755 65.744 4.7058 127.72-2.7433 186.63-22.432 113.23-37.841 207.72-120.11 261.25-227.47 71.464-143.33 66.938-342.85-10.952-482.92-28.409-51.085-68.768-99.494-111.5-133.74-54.68-43.816-121.84-75.837-187.5-89.4-34.332-7.0914-70.739-10.57-107.14-10.568zm30.681 19.295c4.939 0.28232 9.8585 0.63181 14.756 1.0609-4.8957-0.45124-9.8264-0.75541-14.756-1.0609zm18.9 1.4457c81.386 7.835 156.73 35.847 218.58 82.026 6.5379 4.8813 12.907 9.9066 19.109 15.069-5.8502-4.8462-11.83-9.5787-17.974-14.158-62.479-46.572-138.54-74.757-219.71-82.937zm-162.59 10.132c-4.6752 1.0551-9.3685 2.0634-13.985 3.2666 4.6053-1.1782 9.2958-2.2214 13.985-3.2666zm-20.416 5.0445c-57.558 15.954-110.24 43.33-155.11 79.801 46.003-37.706 97.283-64.084 155.11-79.801zm83.396 38.293c-1.3064 0.30327-2.6078 0.61777-3.9054 0.94364 1.2961-0.31916 2.5995-0.65212 3.9054-0.94364zm-246.61 48.389c-2.8946 2.4773-5.7682 4.9775-8.5924 7.5315 2.8381-2.5679 5.7132-5.0548 8.5924-7.5315zm-17.577 15.891c-3.7694 3.616-7.4947 7.2761-11.124 11.031 2.5371-2.6018 5.0223-5.24 7.639-7.7855 1.147-1.1157 2.3317-2.145 3.4854-3.2451zm-14.793 14.77c-28.602 30.343-52.599 65.017-70.947 103.08 18.292-38.168 41.913-72.539 70.947-103.08zm705.37 65.719c25.46 39.995 44.538 84.444 56.913 132.79-12.442-48.35-31.548-92.841-56.913-132.79zm-778.43 41.852c-2.8466 6.0955-5.5338 12.284-8.0864 18.547 2.5598-6.279 5.2579-12.459 8.0864-18.547zm-9.8779 22.845c-1.4198 3.5949-2.6986 7.2009-4.0227 10.802 1.3197-3.6158 2.6181-7.2469 4.0227-10.802zm846.7 73.586c0.50703 2.0788 0.90855 4.2176 1.391 6.3105-0.48535-2.0914-0.8813-4.2329-1.391-6.3105zm-873.47 24.544c-0.14406 0.90667-0.32365 1.79-0.46303 2.7 0.14586-0.90607 0.31301-1.797 0.46303-2.7zm-1.3461 8.8894c-2.9247 20.819-4.7202 42.492-5.3532 65.596-0.11466 4.1856-0.11168 8.2697-0.1602 12.398 0.02183-16.328 0.29224-31.649 1.1703-41.774 1.0705-12.345 2.5725-24.378 4.3431-36.22zm889.14 84.885c0.0458 4.425 0.13442 8.5072 0.12504 12.99 0.0268-4.49-0.0946-8.5872-0.12504-12.99zm0.0938 15.135c-0.079 19.118-0.60604 37.853-1.6919 49.048-0.17084 1.7612-0.41927 3.4778-0.60565 5.2301 1.3451-12.87 2.1293-33.363 2.2976-54.278zm-894.65 2.0494c0.0015 0.0714 0.0024 0.14348 0.0039 0.21491-0.0015-0.0742-0.0024-0.14069-0.0039-0.21491zm0.85768 23.159c2.0921 38.47 7.3684 74.446 16.077 108.29-5.4967-20.986-9.8232-43.051-13.195-67.399-1.2968-9.3632-2.1954-24.532-2.8817-40.893zm717.3 9.5966c-0.18417 4.2906-0.38232 8.5607-0.63691 12.812 0.24248-4.2353 0.45538-8.5065 0.63691-12.812zm173.43 26.072c-0.57828 4.8872-1.1984 9.7501-1.899 14.567 0.71074-4.8098 1.3089-9.6863 1.899-14.567zm-2.2507 16.835c-15.047 100.44-56.711 185.47-124.28 253.04-12.229 12.229-25.121 23.564-38.513 34.137 13.326-10.556 26.145-21.956 38.42-34.231 67.304-67.304 109.07-152.33 124.37-252.94zm-174.52 3.9504c-0.0283 0.26451-0.0554 0.5289-0.084 0.7932 0.0272-0.26522 0.0571-0.52768 0.084-0.7932zm-695.88 59.068c0.87599 3.1966 1.7528 6.3937 2.6903 9.5536-0.94989-3.1431-1.8013-6.3672-2.6903-9.5536zm65.033 139.29c3.2454 4.6643 6.4818 9.3366 9.9209 13.84-3.4064-4.5-6.6767-9.1565-9.9209-13.84zm9.9619 13.895c32.505 42.55 73.584 77.811 121.09 104.72-48.331-27.179-88.522-61.712-121.09-104.72zm631.37 71.976c-3.5266 2.7631-7.103 5.4459-10.704 8.0922 3.5958-2.6502 7.1801-5.3216 10.704-8.0922zm-15.245 11.414c-2.9758 2.1277-5.9806 4.2054-9.0046 6.2538 3.0214-2.051 6.0308-4.1216 9.0046-6.2538zm-15.557 10.618c-2.7295 1.7773-5.4744 3.5246-8.2407 5.2379 2.7654-1.7138 5.5128-3.459 8.2407-5.2379zm-15.553 9.6552c-2.7554 1.6319-5.5157 3.2506-8.3052 4.8198 2.7905-1.5679 5.5506-3.1887 8.3052-4.8198zm-453.47 6.6778c7.704 4.0874 15.568 7.9514 23.583 11.605-3.8289-1.7358-7.7892-3.2917-11.541-5.1285-4.1547-2.0343-7.9999-4.3436-12.043-6.4765zm438.19 1.9478c-3.1358 1.6885-6.2739 3.3701-9.4501 4.98 3.1796-1.6067 6.3142-3.2948 9.4501-4.98zm-214.35 7.2131c-1.8797 0.0707-5.0196 0.21364-6.8243 0.18365 2.2825 0.0297 4.547-0.14417 6.8243-0.18365zm200.29 0.0254c-35.339 17.386-73.064 29.936-112.44 37.29-4.1496 0.77504-8.3148 1.4937-12.5 2.153 4.1811-0.68832 8.3694-1.3619 12.5-2.153 39.945-7.6501 77.476-20.15 112.44-37.29zm-387.1 8.3951c3.6064 1.5024 7.2956 2.8764 10.958 4.2923-3.6734-1.4064-7.3422-2.798-10.958-4.2923zm30.13 11.218c2.2674 0.76341 4.5318 1.5313 6.8184 2.2624-2.2914-0.72472-4.5443-1.5049-6.8184-2.2624zm224.18 21.004c-8.1611 1.1384-16.362 2.1366-24.642 2.8329-23.427 1.9697-47.125 2.0971-70.732 0.71115 29.34 1.0734 72.583-0.36045 95.374-3.544z" style="display:none;fill:#fcfcfb"/>
  <path id="coinIcon" d="m510.55 2c-135.13 0-248.46 42.137-340 126.41-98.803 91.538-149.66 219.4-149.66 377.78 0 309.49 199.06 515.81 499.83 515.81 122.05 0 238.29-45.043 326.92-127.86 101.71-94.444 155.47-225.21 155.47-379.23 0-164.19-61.026-303.67-172.91-399.57-88.632-75.556-194.7-113.33-319.66-113.33zm0.0723 25.227c118.78 1e-6 219.6 35.908 303.85 107.73 106.35 91.154 164.35 223.74 164.35 379.81 0 146.4-51.103 270.7-147.78 360.47-84.248 78.724-194.74 121.54-310.75 121.54-285.89 0-475.11-196.12-475.11-490.3-1e-6 -150.54 48.34-272.08 142.26-359.09 87.01-80.105 194.74-120.16 323.18-120.16zm0.0566 20.26c-123.08 0-226.3 38.38-309.68 115.14-89.991 83.374-136.31 199.83-136.31 344.08 0 281.88 181.31 469.81 455.25 469.81 111.17 0 217.04-41.027 297.76-116.46 92.638-86.021 141.6-205.12 141.6-345.4 0-149.54-55.583-276.59-157.48-363.94-80.727-68.817-177.34-103.23-291.15-103.23zm2.7773 47.506c158.38 0 271.71 155.47 271.71 424.27 0 257.18-114.79 414.1-274.62 414.1-155.47 0-273.16-156.92-273.16-424.27 0-260.09 114.79-414.1 276.07-414.1z" style="fill:#c4af69"/>
  <path id="coinCutout" d="m510.55 2c-135.13 0-248.46 42.137-340 126.41-98.803 91.538-149.66 219.4-149.66 377.78 0 309.49 199.06 515.81 499.83 515.81 122.05 0 238.29-45.043 326.92-127.86 101.71-94.444 155.47-225.21 155.47-379.23 0-164.19-61.026-303.68-172.91-399.57-88.632-75.555-194.7-113.33-319.66-113.33zm0.0723 25.227c118.78 1e-6 219.6 35.908 303.85 107.73 106.35 91.154 164.35 223.74 164.35 379.81 0 146.4-51.103 270.7-147.78 360.47-84.248 78.724-194.74 121.54-310.75 121.54-285.89 0-475.11-196.12-475.11-490.3-4.1e-5 -150.54 48.34-272.08 142.26-359.09 87.01-80.105 194.74-120.16 323.18-120.16zm0.0566 20.26c-123.08 0-226.3 38.38-309.68 115.14-89.991 83.374-136.31 199.83-136.31 344.08 0 281.88 181.31 469.81 455.25 469.81 111.17 0 217.04-41.027 297.76-116.46 92.638-86.021 141.6-205.12 141.6-345.4 0-149.54-55.583-276.59-157.48-363.94-80.727-68.817-177.34-103.23-291.15-103.23zm2.7773 47.506c134.06 0 235.55 111.75 263.64 308.98l5.7695-43.441h98.135l19.199 302.93h-74.666l-1.5996-113.6c0-41.6-1.0684-81.068-1.0684-131.73l-32 213.87h-14.158c-28.842 189.36-131.32 301.37-266.16 301.37-136.67 0-244.07-121.35-268.06-332.3h-28.018l-11.199 62.4h-79.467l76.266-302.93h51.779c35.575-169.06 134.01-265.54 261.61-265.54zm-274.58 364.75-14.807 84.256h14.291c-0.46288-11.501-0.97265-22.96-0.97265-34.906 0-16.92 0.53549-33.341 1.4883-49.35z" style="display:none;fill:#c4af69"/>
  <path id="text" d="m291.27 663.47h80l-75.733-302.93h-95.467l-76.267 302.93h79.467l11.2-62.4h65.6zm-67.2-119.47 22.4-127.47 22.933 127.47zm357.27-183.47h-210.67v60.267h62.933v242.67h80.533v-242.67h59.2zm299.67 0h-98.133l-27.2 204.8-27.733-204.8h-99.2l-19.2 302.93h75.2l1.6-113.6c0.53333-41.6 0-80-1.0667-130.67l32.533 212.8h73.067l32-213.87c0 50.667 1.0667 90.133 1.0667 131.73l1.6 113.6h74.667z" style="fill:#fcfcfb;stroke-width:15;stroke:#76766a" aria-label="ATM"/>
</svg>
